<?xml version="1.0" encoding="UTF-8" standalone="no"?>
<svg
   xmlns:dc="http://purl.org/dc/elements/1.1/"
   xmlns:cc="http://creativecommons.org/ns#"
   xmlns:rdf="http://www.w3.org/1999/02/22-rdf-syntax-ns#"
   xmlns:svg="http://www.w3.org/2000/svg"
   xmlns="http://www.w3.org/2000/svg"
   xmlns:xlink="http://www.w3.org/1999/xlink"
   xmlns:sodipodi="http://sodipodi.sourceforge.net/DTD/sodipodi-0.dtd"
   xmlns:inkscape="http://www.inkscape.org/namespaces/inkscape"
   width="1920"
   height="1080"
   viewBox="0 0 508 285.75"
   version="1.1"
   id="svg8"
   inkscape:version="1.0.2 (e86c870879, 2021-01-15)"
   sodipodi:docname="prometheus-targets.svg">
  <defs
     id="defs2">
    <marker
       style="overflow:visible;"
       id="marker2623"
       refX="0.0"
       refY="0.0"
       orient="auto"
       inkscape:stockid="Arrow1Mend"
       inkscape:isstock="true">
      <path
         transform="scale(0.4) rotate(180) translate(10,0)"
         style="fill-rule:evenodd;stroke:#000000;stroke-width:1pt;stroke-opacity:1;fill:#000000;fill-opacity:1"
         d="M 0.0,0.0 L 5.0,-5.0 L -12.5,0.0 L 5.0,5.0 L 0.0,0.0 z "
         id="path2621" />
    </marker>
    <marker
       style="overflow:visible;"
       id="marker2613"
       refX="0.0"
       refY="0.0"
       orient="auto"
       inkscape:stockid="Arrow1Mend"
       inkscape:isstock="true">
      <path
         transform="scale(0.4) rotate(180) translate(10,0)"
         style="fill-rule:evenodd;stroke:#000000;stroke-width:1pt;stroke-opacity:1;fill:#000000;fill-opacity:1"
         d="M 0.0,0.0 L 5.0,-5.0 L -12.5,0.0 L 5.0,5.0 L 0.0,0.0 z "
         id="path2611" />
    </marker>
    <marker
       style="overflow:visible;"
       id="marker2559"
       refX="0.0"
       refY="0.0"
       orient="auto"
       inkscape:stockid="Arrow1Lend"
       inkscape:isstock="true">
      <path
         transform="scale(0.8) rotate(180) translate(12.5,0)"
         style="fill-rule:evenodd;stroke:#000000;stroke-width:1pt;stroke-opacity:1;fill:#000000;fill-opacity:1"
         d="M 0.0,0.0 L 5.0,-5.0 L -12.5,0.0 L 5.0,5.0 L 0.0,0.0 z "
         id="path2557" />
    </marker>
    <marker
       style="overflow:visible;"
       id="marker2549"
       refX="0.0"
       refY="0.0"
       orient="auto"
       inkscape:stockid="Arrow1Lend"
       inkscape:isstock="true">
      <path
         transform="scale(0.8) rotate(180) translate(12.5,0)"
         style="fill-rule:evenodd;stroke:#000000;stroke-width:1pt;stroke-opacity:1;fill:#000000;fill-opacity:1"
         d="M 0.0,0.0 L 5.0,-5.0 L -12.5,0.0 L 5.0,5.0 L 0.0,0.0 z "
         id="path2547" />
    </marker>
    <linearGradient
       id="a-4"
       gradientUnits="userSpaceOnUse"
       x1="175.5"
       x2="175.5"
       y1="45"
       y2="148.5"
       gradientTransform="matrix(1.7810473,0,0,1.7810473,470.48803,-203.05179)"
       spreadMethod="pad">
      <stop
         offset="0"
         stop-color="#f05a28"
         id="stop1763" />
      <stop
         offset="1"
         stop-color="#fbca0a"
         id="stop1765" />
    </linearGradient>
    <linearGradient
       id="a"
       gradientUnits="userSpaceOnUse"
       x1="175.5"
       x2="175.5"
       y1="45"
       y2="148.5"
       gradientTransform="matrix(1.7810473,0,0,1.7810473,23.19378,-90.244446)">
      <stop
         offset="0"
         stop-color="#f05a28"
         id="stop2" />
      <stop
         offset="1"
         stop-color="#fbca0a"
         id="stop4" />
    </linearGradient>
    <linearGradient
       id="a-4-3"
       gradientUnits="userSpaceOnUse"
       x1="175.5"
       x2="175.5"
       y1="45"
       y2="148.5"
       gradientTransform="matrix(1.7810473,0,0,1.7810473,470.48803,-203.05179)"
       spreadMethod="pad">
      <stop
         offset="0"
         stop-color="#f05a28"
         id="stop2-4" />
      <stop
         offset="1"
         stop-color="#fbca0a"
         id="stop4-7" />
    </linearGradient>
    <linearGradient
       inkscape:collect="always"
       xlink:href="#a"
       id="linearGradient1786"
       x1="742.05792"
       y1="1.2953093"
       x2="751.3941"
       y2="435.6142"
       gradientUnits="userSpaceOnUse"
       gradientTransform="matrix(0.10033912,0,0,0.10033912,263.23902,72.705204)" />
    <path
       id="C"
       d="m 91.473,53.694 c 4.348,-0.001 7.872,-3.525 7.873,-7.873 10e-4,-4.348 -3.525,-7.872 -7.873,-7.873 v 15.75 z" />
    <marker
       style="overflow:visible"
       id="marker2613-6"
       refX="0"
       refY="0"
       orient="auto"
       inkscape:stockid="Arrow1Mend"
       inkscape:isstock="true">
      <path
         transform="matrix(-0.4,0,0,-0.4,-4,0)"
         style="fill:#000000;fill-opacity:1;fill-rule:evenodd;stroke:#000000;stroke-width:1pt;stroke-opacity:1"
         d="M 0,0 5,-5 -12.5,0 5,5 Z"
         id="path2611-2" />
    </marker>
    <marker
       style="overflow:visible"
       id="marker2613-6-7"
       refX="0"
       refY="0"
       orient="auto"
       inkscape:stockid="Arrow1Mend"
       inkscape:isstock="true">
      <path
         transform="matrix(-0.4,0,0,-0.4,-4,0)"
         style="fill:#000000;fill-opacity:1;fill-rule:evenodd;stroke:#000000;stroke-width:1pt;stroke-opacity:1"
         d="M 0,0 5,-5 -12.5,0 5,5 Z"
         id="path2611-2-8" />
    </marker>
    <marker
       style="overflow:visible"
       id="marker2613-6-7-7"
       refX="0"
       refY="0"
       orient="auto"
       inkscape:stockid="Arrow1Mend"
       inkscape:isstock="true">
      <path
         transform="matrix(-0.4,0,0,-0.4,-4,0)"
         style="fill:#000000;fill-opacity:1;fill-rule:evenodd;stroke:#000000;stroke-width:1pt;stroke-opacity:1"
         d="M 0,0 5,-5 -12.5,0 5,5 Z"
         id="path2611-2-8-4" />
    </marker>
    <marker
       style="overflow:visible"
       id="marker2613-5"
       refX="0"
       refY="0"
       orient="auto"
       inkscape:stockid="Arrow1Mend"
       inkscape:isstock="true">
      <path
         transform="matrix(-0.4,0,0,-0.4,-4,0)"
         style="fill:#000000;fill-opacity:1;fill-rule:evenodd;stroke:#000000;stroke-width:1pt;stroke-opacity:1"
         d="M 0,0 5,-5 -12.5,0 5,5 Z"
         id="path2611-9" />
    </marker>
    <marker
       style="overflow:visible"
       id="marker2613-53"
       refX="0"
       refY="0"
       orient="auto"
       inkscape:stockid="Arrow1Mend"
       inkscape:isstock="true">
      <path
         transform="matrix(-0.4,0,0,-0.4,-4,0)"
         style="fill:#000000;fill-opacity:1;fill-rule:evenodd;stroke:#000000;stroke-width:1pt;stroke-opacity:1"
         d="M 0,0 5,-5 -12.5,0 5,5 Z"
         id="path2611-8" />
    </marker>
    <marker
       style="overflow:visible"
       id="marker2613-3"
       refX="0"
       refY="0"
       orient="auto"
       inkscape:stockid="Arrow1Mend"
       inkscape:isstock="true">
      <path
         transform="matrix(-0.4,0,0,-0.4,-4,0)"
         style="fill:#000000;fill-opacity:1;fill-rule:evenodd;stroke:#000000;stroke-width:1pt;stroke-opacity:1"
         d="M 0,0 5,-5 -12.5,0 5,5 Z"
         id="path2611-1" />
    </marker>
    <marker
       style="overflow:visible"
       id="marker2623-4"
       refX="0"
       refY="0"
       orient="auto"
       inkscape:stockid="Arrow1Mend"
       inkscape:isstock="true">
      <path
         transform="matrix(-0.4,0,0,-0.4,-4,0)"
         style="fill:#000000;fill-opacity:1;fill-rule:evenodd;stroke:#000000;stroke-width:1pt;stroke-opacity:1"
         d="M 0,0 5,-5 -12.5,0 5,5 Z"
         id="path2621-3" />
    </marker>
  </defs>
  <sodipodi:namedview
     id="base"
     pagecolor="#ffffff"
     bordercolor="#666666"
     borderopacity="1.0"
     inkscape:pageopacity="0.0"
     inkscape:pageshadow="2"
     inkscape:zoom="0.44639354"
     inkscape:cx="1054.6112"
     inkscape:cy="508.88099"
     inkscape:document-units="mm"
     inkscape:current-layer="layer1"
     inkscape:document-rotation="0"
     showgrid="false"
     inkscape:snap-global="false"
     units="px"
     inkscape:window-width="1920"
     inkscape:window-height="1031"
     inkscape:window-x="0"
     inkscape:window-y="0"
     inkscape:window-maximized="1" />
  <metadata
     id="metadata5">
    <rdf:RDF>
      <cc:Work
         rdf:about="">
        <dc:format>image/svg+xml</dc:format>
        <dc:type
           rdf:resource="http://purl.org/dc/dcmitype/StillImage" />
        <dc:title></dc:title>
      </cc:Work>
    </rdf:RDF>
  </metadata>
  <g
     inkscape:label="Calque 1"
     inkscape:groupmode="layer"
     id="layer1">
    <rect
       style="opacity:0.99;fill:#f4f4f4;fill-rule:evenodd;stroke:#000000;stroke-width:1.73039;stroke-linecap:round;stroke-linejoin:round;stroke-dashoffset:29.4047"
       id="rect1659"
       width="105.7787"
       height="254.46278"
       x="15.128139"
       y="12.964632"
       inkscape:export-filename="./prometheus-targets.png"
       inkscape:export-xdpi="98.96286"
       inkscape:export-ydpi="98.96286" />
    <g
       id="g1685"
       transform="matrix(1.114717,0,0,1.114717,39.084406,160.57568)"
       inkscape:export-filename="./prometheus-targets.png"
       inkscape:export-xdpi="98.96286"
       inkscape:export-ydpi="98.96286">
      <g
         id="g1663">
        <path
           d="m 16.097891,3.9733057 c 6.569347,0.012946 13.138693,0.025892 19.70804,0.038838 -0.416668,-0.4166665 -0.833336,-0.833333 -1.25,-1.2499998 0.115391,10.5713451 0.202915,21.1429481 0.256596,31.7147931 0.01342,2.642955 0.02485,5.285919 0.03429,7.928894 0.01336,3.74221 0.332642,4.720771 -3.470493,5.418003 -4.791378,0.878402 -10.645727,-0.05164 -15.529713,-0.07534 0.416666,0.416668 0.833334,0.833336 1.25,1.25 C 16.897385,33.576196 16.9865,18.154529 17.363945,2.7355582 c 0.0394,-1.609363 -2.460621,-1.6086284 -2.499999,0 -0.377445,15.4189688 -0.466561,30.8406318 -0.267335,46.2629358 0.0088,0.678086 0.565645,1.246681 1.25,1.25 3.882429,0.01883 7.764857,0.03767 11.647286,0.0565 2.804918,0.0136 6.168224,0.632152 8.856365,-0.258545 0.39574,-0.131123 0.787056,-0.438683 0.873051,-0.873047 0.553592,-2.796177 0.127273,-5.907147 0.116054,-8.749806 -0.01696,-4.294826 -0.03926,-8.58963 -0.06673,-12.884399 -0.05282,-8.259188 -0.126553,-16.518198 -0.216702,-24.7770602 -0.0074,-0.6766505 -0.566734,-1.2486535 -1.25,-1.25 -6.569347,-0.012946 -13.138693,-0.025893 -19.70804,-0.038839 -1.608761,-0.00317 -1.611152,2.4968248 0,2.5000001 z"
           fill="#231f20"
           id="path1661" />
      </g>
      <g
         id="g1667">
        <path
           d="m 21.6812,8.485157 c 3.027779,0 6.055555,0 9.083334,0 1.608631,0 1.611294,-2.5000005 0,-2.5000005 -3.027779,0 -6.055555,0 -9.083334,0 -1.608629,0 -1.611294,2.5000005 0,2.5000005 z"
           fill="#231f20"
           id="path1665" />
      </g>
      <g
         id="g1671">
        <path
           d="m 21.514534,14.485157 c 3.25,0 6.5,0 9.75,0 1.608631,0 1.611294,-2.5 0,-2.5 -3.25,0 -6.5,0 -9.75,0 -1.608631,0 -1.611296,2.5 0,2.5 z"
           fill="#231f20"
           id="path1669" />
      </g>
      <g
         id="g1675">
        <path
           d="m 20.846958,20.166799 c 3.165943,0.18047 6.330481,0.222981 9.500097,0.127625 1.605093,-0.04829 1.611929,-2.548494 0,-2.5 -3.169647,0.09536 -6.334184,0.05284 -9.500097,-0.127625 -1.607357,-0.09163 -1.602123,2.408675 0,2.5 z"
           fill="#231f20"
           id="path1673" />
      </g>
      <g
         id="g1679">
        <path
           d="m 20.9312,28.151823 c 3.527779,0 7.055555,0 10.583334,0 1.608631,0 1.611294,-2.5 0,-2.5 -3.527779,0 -7.055555,0 -10.583334,0 -1.608629,0 -1.611294,2.5 0,2.5 z"
           fill="#231f20"
           id="path1677" />
      </g>
      <g
         id="g1683">
        <path
           d="m 28.389793,37.408646 c 0.0561,0.545166 0.209496,1.296493 -0.0047,1.822387 -0.289982,0.711876 -1.113344,0.778916 -1.775337,0.818859 -0.595892,0.03596 -1.198166,0.02591 -1.794955,0.02674 -0.934854,0.0013 -1.135196,-0.368492 -1.285125,-1.287506 -0.123356,-0.756115 -0.104744,-1.589161 0.07485,-2.334484 0.228359,-0.947727 0.473433,-0.874588 1.39469,-0.888931 0.836986,-0.01303 1.757379,-0.165543 2.430221,0.398491 0.480368,0.402679 0.854201,1.090965 1.162159,1.625225 0.80325,1.393509 2.964377,0.135959 2.158676,-1.261799 -0.586446,-1.017391 -1.41167,-2.315815 -2.473836,-2.874592 -1.252255,-0.658775 -3.010741,-0.449051 -4.372742,-0.370266 -3.07647,0.177956 -3.230583,4.288925 -2.732124,6.616985 0.243265,1.136181 0.718994,2.251687 1.886716,2.678471 1.15906,0.423622 2.740435,0.253479 3.948038,0.143692 2.966284,-0.269669 4.176405,-2.266823 3.8835,-5.113274 -0.163071,-1.584716 -2.664799,-1.601493 -2.500001,10e-7 z"
           fill="#231f20"
           id="path1681" />
      </g>
    </g>
    <g
       id="g1836"
       transform="matrix(0.10692234,0,0,0.10692234,44.952862,91.03858)"
       inkscape:export-filename="./prometheus-targets.png"
       inkscape:export-xdpi="98.96286"
       inkscape:export-ydpi="98.96286">
      <g
         id="orginal"
         style="clip-rule:nonzero;fill-rule:nonzero;stroke:#000000;stroke-miterlimit:4">
	</g>
      <g
         id="Layer_x0020_3"
         style="clip-rule:nonzero;fill:none;fill-rule:nonzero;stroke:#ffffff;stroke-width:12.4651;stroke-linecap:round;stroke-linejoin:round;stroke-miterlimit:4">
<path
   style="fill:#000000;stroke:#000000;stroke-width:37.3953;stroke-linecap:butt;stroke-linejoin:miter"
   d="m 323.205,324.227 c 2.833,-23.601 1.984,-27.062 19.563,-23.239 l 4.463,0.392 c 13.517,0.615 31.199,-2.174 41.587,-7 22.362,-10.376 35.622,-27.7 13.572,-23.148 -50.297,10.376 -53.755,-6.655 -53.755,-6.655 C 401.746,185.774 423.948,85.741 404.784,61.255 352.514,-5.534 262.036,26.049 260.522,26.869 l -0.482,0.089 c -9.938,-2.062 -21.06,-3.294 -33.554,-3.496 -22.761,-0.374 -40.032,5.967 -53.133,15.904 0,0 -161.408,-66.498 -153.899,83.628 1.597,31.936 45.777,241.655 98.47,178.31 19.259,-23.163 37.871,-42.748 37.871,-42.748 9.242,6.14 20.307,9.272 31.912,8.147 l 0.897,-0.765 c -0.281,2.876 -0.157,5.689 0.359,9.019 -13.572,15.167 -9.584,17.83 -36.723,23.416 -27.457,5.659 -11.326,15.734 -0.797,18.367 12.768,3.193 42.305,7.716 62.268,-20.224 l -0.795,3.188 c 5.325,4.26 4.965,30.619 5.72,49.452 0.756,18.834 2.017,36.409 5.856,46.771 3.839,10.36 8.369,37.05 44.036,29.406 29.809,-6.388 52.6,-15.582 54.677,-101.107"
   id="path1789" />

<path
   style="fill:#336791;stroke:none"
   d="m 402.395,271.23 c -50.302,10.376 -53.76,-6.655 -53.76,-6.655 53.111,-78.808 75.313,-178.843 56.153,-203.326 -52.27,-66.785 -142.752,-35.2 -144.262,-34.38 l -0.486,0.087 c -9.938,-2.063 -21.06,-3.292 -33.56,-3.496 -22.761,-0.373 -40.026,5.967 -53.127,15.902 0,0 -161.411,-66.495 -153.904,83.63 1.597,31.938 45.776,241.657 98.471,178.312 19.26,-23.163 37.869,-42.748 37.869,-42.748 9.243,6.14 20.308,9.272 31.908,8.147 l 0.901,-0.765 c -0.28,2.876 -0.152,5.689 0.361,9.019 -13.575,15.167 -9.586,17.83 -36.723,23.416 -27.459,5.659 -11.328,15.734 -0.796,18.367 12.768,3.193 42.307,7.716 62.266,-20.224 l -0.796,3.188 c 5.319,4.26 9.054,27.711 8.428,48.969 -0.626,21.259 -1.044,35.854 3.147,47.254 4.191,11.4 8.368,37.05 44.042,29.406 29.809,-6.388 45.256,-22.942 47.405,-50.555 1.525,-19.631 4.976,-16.729 5.194,-34.28 l 2.768,-8.309 c 3.192,-26.611 0.507,-35.196 18.872,-31.203 l 4.463,0.392 c 13.517,0.615 31.208,-2.174 41.591,-7 22.358,-10.376 35.618,-27.7 13.573,-23.148 z"
   id="path1791" />

<path
   d="m 215.866,286.484 c -1.385,49.516 0.348,99.377 5.193,111.495 4.848,12.118 15.223,35.688 50.9,28.045 29.806,-6.39 40.651,-18.756 45.357,-46.051 3.466,-20.082 10.148,-75.854 11.005,-87.281"
   id="path1793" />

<path
   d="m 173.104,38.256 c 0,0 -161.521,-66.016 -154.012,84.109 1.597,31.938 45.779,241.664 98.473,178.316 19.256,-23.166 36.671,-41.335 36.671,-41.335"
   id="path1795" />

<path
   d="m 260.349,26.207 c -5.591,1.753 89.848,-34.889 144.087,34.417 19.159,24.484 -3.043,124.519 -56.153,203.329"
   id="path1797" />

<path
   style="stroke-linejoin:bevel"
   d="m 348.282,263.953 c 0,0 3.461,17.036 53.764,6.653 22.04,-4.552 8.776,12.774 -13.577,23.155 -18.345,8.514 -59.474,10.696 -60.146,-1.069 -1.729,-30.355 21.647,-21.133 19.96,-28.739 -1.525,-6.85 -11.979,-13.573 -18.894,-30.338 -6.037,-14.633 -82.796,-126.849 21.287,-110.183 3.813,-0.789 -27.146,-99.002 -124.553,-100.599 -97.385,-1.597 -94.19,119.762 -94.19,119.762"
   id="path1799" />

<path
   d="m 188.604,274.334 c -13.577,15.166 -9.584,17.829 -36.723,23.417 -27.459,5.66 -11.326,15.733 -0.797,18.365 12.768,3.195 42.307,7.718 62.266,-20.229 6.078,-8.509 -0.036,-22.086 -8.385,-25.547 -4.034,-1.671 -9.428,-3.765 -16.361,3.994 z"
   id="path1801" />

<path
   d="m 187.715,274.069 c -1.368,-8.917 2.93,-19.528 7.536,-31.942 6.922,-18.626 22.893,-37.255 10.117,-96.339 -9.523,-44.029 -73.396,-9.163 -73.436,-3.193 -0.039,5.968 2.889,30.26 -1.067,58.548 -5.162,36.913 23.488,68.132 56.479,64.938"
   id="path1803" />

<path
   style="fill:#ffffff;stroke-width:4.155;stroke-linecap:butt;stroke-linejoin:miter"
   d="m 172.517,141.7 c -0.288,2.039 3.733,7.48 8.976,8.207 5.234,0.73 9.714,-3.522 9.998,-5.559 0.284,-2.039 -3.732,-4.285 -8.977,-5.015 -5.237,-0.731 -9.719,0.333 -9.996,2.367 z"
   id="path1805" />

<path
   style="fill:#ffffff;stroke-width:2.0775;stroke-linecap:butt;stroke-linejoin:miter"
   d="m 331.941,137.543 c 0.284,2.039 -3.732,7.48 -8.976,8.207 -5.238,0.73 -9.718,-3.522 -10.005,-5.559 -0.277,-2.039 3.74,-4.285 8.979,-5.015 5.239,-0.73 9.718,0.333 10.002,2.368 z"
   id="path1807" />

<path
   d="m 350.676,123.432 c 0.863,15.994 -3.445,26.888 -3.988,43.914 -0.804,24.748 11.799,53.074 -7.191,81.435"
   id="path1809" />

<path
   style="stroke-width:3"
   d="M 0,60.232"
   id="path1811" />

</g>
    </g>
    <g
       style="fill:#ffffff;fill-rule:evenodd;stroke:#000000;stroke-linecap:round;stroke-linejoin:round"
       id="g1892"
       transform="matrix(0.41889145,0,0,0.41889145,40.33183,32.6842)"
       inkscape:export-filename="./prometheus-targets.png"
       inkscape:export-xdpi="98.96286"
       inkscape:export-ydpi="98.96286">
      <use
         xlink:href="#A"
         x="2.0829999"
         y="2.0829999"
         id="use1838"
         width="100%"
         height="100%" />
      <symbol
         id="A"
         overflow="visible">
        <g
           stroke="none"
           fill-rule="nonzero"
           id="g1852">
          <path
             d="m 0,0 v 72.583 c 0,2.298 3.954,6.25 6.25,6.25 h 115.756 c 2.296,0 6.25,-3.952 6.25,-6.25 V 0 Z"
             fill="#d0cfce"
             id="path1840" />
          <use
             xlink:href="#C"
             id="use1842"
             x="0"
             y="0"
             width="100%"
             height="100%" />
          <path
             d="M 46.09,30.867 H 81.98 V 59.159 H 46.09 Z"
             fill="#fcea2b"
             id="path1844" />
          <path
             d="m 97.265,45.821 c 0,-2.458 -1.542,-4.583 -3.708,-5.404 v 10.808 c 2.167,-0.84 3.708,-2.946 3.708,-5.404 z m -66.798,0 c 0,2.458 1.542,4.583 3.708,5.404 V 40.417 c -2.167,0.84 -3.708,2.946 -3.708,5.404 z"
             id="path1846" />
          <path
             d="m 17.042,46.421 c 0,8.542 10.579,16.465 19.213,17.538 V 53.694 c -4.927,-1.006 -7.875,-2.875 -7.875,-7.875 0,-5 2.946,-6.869 7.875,-7.875 V 27.679 c 0,0 -8.506,2.708 -11.521,4.135 -2.744,1.313 -7.708,14.583 -7.708,14.583 z m 84.696,-15.554 c -3.256,-2.333 -8.604,-3.108 -8.604,-3.108 l 0.425,10.475 c 0,0 5.088,2.854 5.088,7.083 0,4.021 -3.233,6.171 -6.508,8.333 l -0.667,10.756 c 7.813,-2.821 18.808,-8.529 17.871,-20.235 -0.937,-11.706 -6.575,-12.61 -7.604,-13.35 z"
             fill="#d0cfce"
             id="path1848" />
          <path
             d="m 36.259,32.511 -1.667,-4.827 c -7.871,1.025 -17.029,10.671 -14.41,18.138 0,0 1.194,-3.433 2.617,-5.696 1.423,-2.263 3.696,-4.725 6.198,-5.979 2.75,-1.381 7.24,-1.633 7.24,-1.633 z m 61.008,30.254 c -1.177,0.458 -4.504,1.521 -5.792,1.667 l 0.667,-10.756 c 1.358,-0.292 4.035,-0.05 5.125,-0.833 l 0.002,9.902 z m 9.325,-22.354 C 109.4,36.119 97.513,28.467 91.473,27.703 v 9.35 c 1.125,0.24 4.26,1.798 5.208,2.383 l 0.129,-6.708 c 1.611,1.211 3.381,2.194 5.26,2.921 2.5,1.927 4.521,4.785 4.521,4.785 z m 7.371,-27.342 V 10.448 H 14 v 12.583 c 10e-4,0.836 -0.499,1.592 -1.269,1.919 -0.77,0.327 3.798,0.471 3.798,-1.917 v -9.958 m 101.6,-4.708 z"
             fill="#9b9b9a"
             id="path1850" />
        </g>
        <g
           fill="none"
           stroke-width="4.167"
           id="g1864">
          <path
             d="M 122.006,78.833 H 6.25 A 6.25,6.25 0 0 1 0,72.583 V 0 h 128.256 v 72.583 a 6.25,6.25 0 0 1 -6.25,6.25 z"
             id="path1854" />
          <path
             d="M 36.259,27.683 A 18.15,18.15 0 0 0 18.121,45.82 18.15,18.15 0 0 0 36.259,63.958 Z M 91.474,63.958 A 18.15,18.15 0 0 0 109.612,45.82 18.15,18.15 0 0 0 91.474,27.683 Z"
             id="path1856" />
          <path
             d="m 36.258,37.946 c -4.348,0.001 -7.872,3.525 -7.873,7.873 -0.001,4.348 3.525,7.872 7.873,7.873 v -15.75 z m 9.167,-7.079 H 81.979 V 59.159 H 45.404 Z M 11.917,23.032 V 8.365 h 104.131 v 14.667"
             id="path1858" />
          <use
             xlink:href="#C"
             id="use1860"
             x="0"
             y="0"
             width="100%"
             height="100%" />
          <path
             d="m 23.965,18.233 h 81.958"
             id="path1862" />
        </g>
      </symbol>
    </g>
    <text
       xml:space="preserve"
       style="font-style:normal;font-weight:normal;font-size:15.8494px;line-height:1.25;font-family:sans-serif;letter-spacing:0px;word-spacing:0px;fill:#000000;fill-opacity:1;stroke:none;stroke-width:0.396;stroke-miterlimit:4;stroke-dasharray:none"
       x="67.95945"
       y="243.0648"
       id="text1896"
       inkscape:export-filename="./prometheus-targets.png"
       inkscape:export-xdpi="98.96286"
       inkscape:export-ydpi="98.96286"><tspan
         sodipodi:role="line"
         x="67.95945"
         y="243.0648"
         style="text-align:center;text-anchor:middle;stroke-width:0.396;stroke-miterlimit:4;stroke-dasharray:none"
         id="tspan1898">Noeud du</tspan><tspan
         sodipodi:role="line"
         x="67.95945"
         y="262.87653"
         style="text-align:center;text-anchor:middle;stroke-width:0.396;stroke-miterlimit:4;stroke-dasharray:none"
         id="tspan3868">cluster</tspan></text>
    <g
       id="g2027"
       transform="matrix(1.5093889,0,0,1.5093889,431.32328,36.83406)"
       inkscape:export-filename="./prometheus-targets.png"
       inkscape:export-xdpi="98.96286"
       inkscape:export-ydpi="98.96286">
      <g
         id="g1998">
        <path
           d="m 32,11.105 c 0,0.396 -0.031,1.168 -0.094,2.315 -0.063,1.146 -0.198,2.273 -0.406,3.379 -0.209,1.105 -0.594,2.346 -1.156,3.723 -0.563,1.376 -1.25,2.618 -2.063,3.723 -0.812,1.104 -1.927,2.148 -3.343,3.128 -1.417,0.979 -3.021,1.68 -4.812,2.096 -0.959,0.251 -1.938,0.396 -2.938,0.438 -0.041,0 -0.124,0.021 -0.249,0.062 -0.835,0.041 -1.667,0.041 -2.5,0 C 9.272,29.553 5.335,27.008 2.627,22.336 1.377,20.124 0.667,18.019 0.502,16.017 0.377,16.601 0.292,17.102 0.252,17.518 0.127,15.141 0.314,13.202 0.814,11.7 0.438,12.326 0.165,12.909 0,13.452 0.333,11.575 0.771,10.094 1.312,9.01 1.352,8.76 1.602,8.3 2.062,7.634 c 0,-0.084 0,-0.146 0,-0.188 C 1.978,6.277 2.094,5.224 2.406,4.286 2.718,3.348 2.977,2.763 3.187,2.534 3.395,2.305 3.562,2.128 3.687,2.003 3.728,3.003 4.25,3.962 5.25,4.88 5.5,4.921 5.728,4.943 5.938,4.943 6.978,4.734 8.063,4.755 9.188,5.005 9.853,4.17 10.876,3.607 12.25,3.316 l 1.188,-0.062 c -1.21,0.709 -1.938,1.73 -2.188,3.065 0.458,0.959 1.062,1.439 1.812,1.439 0.625,0 1.083,0 1.375,0 0.708,0 1.083,0.062 1.125,0.188 V 8.008 8.07 c 0.04,0.041 0.04,0.104 0,0.188 V 8.32 8.382 c -0.042,0.417 -0.188,0.729 -0.438,0.939 -0.042,0 -0.062,0.01 -0.062,0.031 0,0.021 -0.022,0.031 -0.062,0.031 0,0.041 -0.188,0.166 -0.562,0.375 -0.5,0.333 -0.897,0.604 -1.188,0.813 -0.542,0.333 -0.812,0.562 -0.812,0.688 v 0.062 h -0.062 c 0.125,0.25 0.208,0.562 0.25,0.938 0.083,0.375 0.103,0.604 0.062,0.688 0,0.209 0,0.396 0,0.563 -0.5,-0.25 -0.979,-0.417 -1.438,-0.5 -0.585,0.25 -0.917,0.521 -1,0.812 -0.042,0.167 -0.085,0.334 -0.125,0.501 0,0.792 0.562,1.523 1.688,2.189 0.458,0.292 0.927,0.46 1.406,0.501 0.478,0.042 0.853,0.021 1.125,-0.062 0.271,-0.084 0.603,-0.209 1,-0.376 0.396,-0.166 0.677,-0.271 0.844,-0.312 1.25,-0.334 2.271,-0.041 3.062,0.876 0.251,0.25 0.303,0.491 0.157,0.72 -0.146,0.229 -0.365,0.303 -0.657,0.219 -0.124,0.041 -0.208,0.053 -0.249,0.031 -0.042,-0.021 -0.136,0 -0.282,0.062 -0.146,0.062 -0.249,0.104 -0.312,0.125 -0.063,0.021 -0.167,0.084 -0.312,0.188 -0.146,0.105 -0.261,0.179 -0.345,0.22 -0.083,0.041 -0.218,0.135 -0.406,0.281 -0.188,0.146 -0.343,0.24 -0.468,0.281 -0.5,0.376 -1.219,0.647 -2.156,0.813 -0.937,0.166 -1.719,0.166 -2.344,0 0.5,0.376 0.896,0.647 1.188,0.813 0.29,0.167 0.771,0.429 1.438,0.782 0.665,0.354 1.239,0.585 1.719,0.688 0.478,0.104 1.083,0.156 1.812,0.156 0.729,0 1.396,-0.125 2,-0.376 0.604,-0.25 1.249,-0.677 1.938,-1.282 0.687,-0.604 1.343,-1.365 1.969,-2.283 0.125,-0.21 0.208,-0.335 0.249,-0.376 0.084,0 -0.021,0.563 -0.312,1.689 -0.125,0.585 -0.166,0.876 -0.125,0.876 0.709,-0.501 1.198,-1.461 1.469,-2.878 0.271,-1.418 0.303,-2.794 0.094,-4.13 0.5,0.209 0.854,0.604 1.062,1.189 l 0.126,0.125 c 0.249,-0.793 0.396,-1.825 0.438,-3.098 0.041,-1.272 -0.084,-2.325 -0.375,-3.159 0.541,0.166 1.041,0.709 1.5,1.627 C 27.941,9.774 27.753,9.159 27.504,8.596 27.253,8.033 26.973,7.553 26.659,7.157 26.347,6.761 26.013,6.385 25.659,6.031 25.305,5.677 24.941,5.384 24.566,5.155 24.19,4.926 23.826,4.717 23.472,4.529 23.118,4.341 22.784,4.195 22.472,4.091 22.159,3.987 21.877,3.903 21.628,3.841 21.377,3.779 21.19,3.736 21.066,3.715 20.941,3.694 20.899,3.684 20.941,3.684 21.982,3.392 23.045,3.246 24.129,3.246 24,3.044 23.76,2.856 23.406,2.69 23.052,2.523 22.666,2.378 22.249,2.252 21.833,2.127 21.427,2.023 21.031,1.94 20.635,1.855 20.166,1.752 19.625,1.627 h -0.062 0.124 c 1.167,-0.334 3,-0.084 5.5,0.751 0.917,0.291 1.751,0.823 2.5,1.596 0.751,0.771 1.22,1.345 1.407,1.721 0.187,0.375 0.322,0.688 0.406,0.938 V 6.381 C 29.541,6.172 29.51,5.85 29.406,5.411 29.302,4.973 29.145,4.504 28.937,4.004 c 0.041,0 0.104,0.031 0.188,0.094 0.083,0.062 0.239,0.291 0.469,0.688 0.229,0.396 0.489,0.97 0.78,1.72 0.459,1.127 0.854,3.149 1.188,6.069 l 0.375,-2.378 C 31.979,10.407 32,10.708 32,11.105 Z"
           fill="#ea7015"
           id="path1996" />
      </g>
      <g
         id="g2000" />
      <g
         id="g2002" />
      <g
         id="g2004" />
      <g
         id="g2006" />
      <g
         id="g2008" />
      <g
         id="g2010" />
    </g>
    <g
       id="g2069"
       transform="matrix(1.5093889,0,0,1.5093889,431.32328,116.09541)"
       inkscape:export-filename="./prometheus-targets.png"
       inkscape:export-xdpi="98.96286"
       inkscape:export-ydpi="98.96286">
      <g
         id="g2037">
        <path
           d="m 16,24.188 c -1.625,0 -3.104,-0.438 -4.438,-1.312 -1.334,-0.875 -2.334,-2 -3,-3.375 L 2,8 c -1.375,2.459 -2,5.209 -2,8 0,4 1.302,7.49 3.906,10.469 2.604,2.979 5.844,4.76 9.719,5.344 l 4.641,-8.031 C 17.799,23.919 17.02,24.188 16,24.188 Z"
           fill="#4aae48"
           id="path2029" />
        <path
           d="M 10.969,9.531 C 12.447,8.386 14.125,8 16,8 16.25,8 29.75,8 29.75,8 28.333,5.584 26.406,3.542 23.969,2.125 21.531,0.709 18.875,0 16,0 13.5,0 11.166,0.531 9,1.594 6.833,2.656 4.828,4.203 3.359,6.188 L 8,14 c 0.458,-1.791 1.489,-3.322 2.969,-4.469 z"
           fill="#ea3939"
           id="path2031" />
        <path
           d="M 30.797,10 H 21.5 c 1.625,1.625 2.688,3.709 2.688,6 0,1.709 -0.479,3.271 -1.438,4.688 L 16.188,32 C 20.563,31.958 24.292,30.375 27.376,27.25 30.458,24.125 32,20.375 32,16 32,13.959 31.656,11.812 30.797,10 Z"
           fill="#fed14b"
           id="path2033" />
        <circle
           cx="16"
           cy="16"
           fill="#188fd1"
           r="6"
           id="circle2035" />
      </g>
      <g
         id="g2039" />
      <g
         id="g2041" />
      <g
         id="g2043" />
      <g
         id="g2045" />
      <g
         id="g2047" />
      <g
         id="g2049" />
    </g>
    <g
       id="g2102"
       transform="matrix(1.5093889,0,0,1.5093889,431.32253,198.37593)"
       inkscape:export-filename="./prometheus-targets.png"
       inkscape:export-xdpi="98.96286"
       inkscape:export-ydpi="98.96286">
      <g
         id="g2073">
        <path
           d="m 26.737,4.375 c 2.842,2.917 4.264,6.75 4.264,11.5 0,4.334 -1.422,8.104 -4.264,11.312 C 23.895,30.396 20.295,32 15.938,32 11.622,32 8.053,30.396 5.232,27.188 2.41,23.979 1,20.209 1,15.875 1,11.125 2.39,7.292 5.171,4.375 7.95,1.459 11.54,0 15.938,0 c 4.357,0 7.957,1.459 10.799,4.375 z m -5.446,6.687 C 21.167,9.771 20.918,8.51 20.544,7.281 20.171,6.052 19.6,5.104 18.833,4.437 c -0.769,-0.666 -1.733,-1 -2.895,-1 -1.162,0 -2.116,0.323 -2.863,0.969 C 12.328,5.053 11.778,6 11.426,7.25 11.074,8.5 10.835,9.75 10.71,11 c -0.124,1.25 -0.187,2.771 -0.187,4.562 0,1.125 0.021,2.073 0.062,2.844 0.04,0.771 0.113,1.709 0.218,2.812 0.103,1.104 0.27,2.031 0.498,2.781 0.228,0.75 0.538,1.49 0.934,2.219 0.394,0.729 0.902,1.281 1.524,1.656 0.622,0.375 1.348,0.562 2.179,0.562 0.829,0 1.565,-0.188 2.21,-0.562 0.643,-0.375 1.161,-0.927 1.556,-1.656 0.394,-0.728 0.716,-1.468 0.965,-2.218 0.249,-0.75 0.436,-1.677 0.56,-2.781 0.125,-1.104 0.197,-2.052 0.219,-2.844 0.02,-0.791 0.03,-1.729 0.03,-2.812 0,-1.709 -0.062,-3.209 -0.187,-4.501 z"
           fill="#ea3939"
           id="path2071" />
      </g>
      <g
         id="g2075" />
      <g
         id="g2077" />
      <g
         id="g2079" />
      <g
         id="g2081" />
      <g
         id="g2083" />
      <g
         id="g2085" />
    </g>
    <rect
       style="opacity:0.99;fill:#f4f4f4;fill-rule:evenodd;stroke:#000000;stroke-width:1.73039;stroke-linecap:round;stroke-linejoin:round;stroke-dashoffset:29.4047"
       id="rect1659-7"
       width="231.72231"
       height="254.46277"
       x="167.23457"
       y="12.495852"
       inkscape:export-filename="./prometheus-targets.png"
       inkscape:export-xdpi="98.96286"
       inkscape:export-ydpi="98.96286" />
    <path
       d="m 371.56573,81.139024 c -0.10729,-1.09013 -0.28594,-2.34109 -0.64336,-3.73501 -0.35742,-1.37607 -0.89354,-2.89509 -1.67986,-4.46772 -0.78632,-1.57264 -1.80497,-3.19889 -3.1274,-4.78939 -0.51827,-0.62549 -1.09013,-1.23309 -1.69774,-1.82283 0.91142,-3.6278 -1.10799,-6.77306 -1.10799,-6.77306 -3.48482,-0.21445 -5.70081,1.09012 -6.52287,1.67985 -0.14297,-0.0536 -0.26806,-0.12514 -0.41103,-0.1787 -0.58973,-0.23232 -1.19735,-0.46464 -1.84069,-0.66122 -0.62549,-0.19659 -1.26884,-0.37529 -1.93007,-0.53613 -0.66122,-0.16085 -1.32243,-0.28593 -2.00153,-0.39317 -0.12514,-0.0179 -0.23232,-0.0357 -0.35741,-0.0536 -1.51902,-4.86088 -5.87953,-6.89816 -5.87953,-6.89816 -4.87873,3.09167 -5.79015,7.41641 -5.79015,7.41641 0,0 -0.0179,0.0894 -0.0536,0.2502 -0.26807,0.0714 -0.53613,0.16084 -0.80418,0.23232 -0.3753,0.10728 -0.75057,0.25019 -1.108,0.39316 -0.3753,0.14296 -0.7327,0.28593 -1.108,0.44676 -0.7327,0.32168 -1.46541,0.67911 -2.18024,1.07226 -0.69696,0.39316 -1.37605,0.82207 -2.03728,1.26883 l -0.17871,-0.0714 c -6.75518,-2.57341 -12.74193,0.51826 -12.74193,0.51826 -0.554,7.18409 2.6985,11.70543 3.34185,12.52747 -0.16083,0.44679 -0.30381,0.89356 -0.44677,1.34033 -0.50038,1.62624 -0.87566,3.28824 -1.108,5.02171 -0.0357,0.25019 -0.0714,0.50038 -0.0893,0.75057 -6.25481,3.09167 -8.09551,9.40009 -8.09551,9.40009 5.20042,5.98673 11.27652,6.36202 11.27652,6.36202 l 0.0179,-0.0179 c 0.76845,1.376056 1.66198,2.680636 2.66277,3.913716 0.4289,0.51826 0.8578,1.00078 1.32244,1.48328 -1.89431,5.43274 0.26806,9.93621 0.26806,9.93621 5.79016,0.21444 9.59666,-2.53767 10.40085,-3.16314 0.57186,0.19657 1.1616,0.37528 1.75135,0.51825 1.78708,0.46464 3.6099,0.73271 5.43273,0.80419 0.44677,0.0179 0.91142,0.0357 1.3582,0.0179 h 0.64334 l 0.28594,-0.0179 v 0.0179 c 2.73424,3.89584 7.52363,4.44984 7.52363,4.44984 3.41335,-3.59205 3.60993,-7.16622 3.60993,-7.93467 v -0.0536 -0.10728 -0.16083 c 0.71482,-0.50039 1.39392,-1.03651 2.03727,-1.62626 1.35818,-1.23309 2.55554,-2.64488 3.55629,-4.1639 l 0.26807,-0.42892 c 3.86011,0.21447 6.59437,-2.39468 6.59437,-2.39468 -0.64336,-4.020946 -2.93083,-5.986746 -3.41336,-6.362036 -0.4825,-0.37528 -0.0179,-0.0179 -0.0536,-0.0357 -0.0357,-0.0179 -0.0357,-0.0357 -0.0357,-0.0357 -0.0179,-0.0179 -0.0536,-0.0357 -0.0893,-0.0536 0.0179,-0.25018 0.0357,-0.4825 0.0536,-0.7327 0.0357,-0.42891 0.0357,-0.87567 0.0357,-1.30457 v -0.57188 -0.10728 l -0.0179,-0.26806 -0.0179,-0.35742 c 0,-0.12515 -0.0179,-0.23232 -0.0357,-0.33955 -0.0179,-0.10729 -0.0179,-0.23232 -0.0357,-0.33954 l -0.0357,-0.33955 -0.0536,-0.33955 c -0.0714,-0.44677 -0.14298,-0.87567 -0.25019,-1.32244 -0.41103,-1.73347 -1.09013,-3.3776 -1.9658,-4.86088 -0.89355,-1.48328 -2.00153,-2.78786 -3.27037,-3.89584 -1.25096,-1.108 -2.66277,-2.00154 -4.12817,-2.66277 -1.48328,-0.66122 -3.02018,-1.09011 -4.55708,-1.2867 -0.76845,-0.10728 -1.53689,-0.14296 -2.30534,-0.12514 h -0.57186 l -0.28594,0.0179 c -0.10728,0 -0.21445,0.0179 -0.30381,0.0179 -0.39315,0.0357 -0.78632,0.0893 -1.1616,0.16083 -1.53689,0.28593 -2.98443,0.83994 -4.25326,1.60838 -1.26883,0.76845 -2.37683,1.7156 -3.27037,2.78786 -0.89355,1.07224 -1.59051,2.2696 -2.07303,3.50269 -0.48251,1.23309 -0.75057,2.51979 -0.82206,3.75288 -0.0179,0.3038 -0.0179,0.62548 -0.0179,0.92928 v 0.23232 l 0.0179,0.2502 c 0.0179,0.14296 0.0179,0.3038 0.0357,0.44676 0.0536,0.62549 0.1787,1.23309 0.33955,1.80496 0.33954,1.16161 0.87567,2.21599 1.5369,3.10954 0.66122,0.89353 1.4654,1.62624 2.30533,2.21598 0.83993,0.57188 1.75135,0.9829 2.6449,1.25096 0.89353,0.26806 1.78708,0.37528 2.627,0.37528 h 0.46466 c 0.0536,0 0.10728,0 0.16083,-0.0179 0.0894,0 0.17871,-0.0179 0.26807,-0.0179 0.0179,0 0.0536,0 0.0714,-0.0179 l 0.0893,-0.0179 c 0.0536,0 0.10728,-0.0179 0.16084,-0.0179 0.10728,-0.0179 0.19658,-0.0357 0.3038,-0.0536 0.10728,-0.0179 0.19659,-0.0357 0.28593,-0.0714 0.19658,-0.0357 0.3753,-0.10728 0.554,-0.16083 0.35742,-0.12514 0.71483,-0.26806 1.01864,-0.42889 0.32168,-0.16085 0.60762,-0.35743 0.89354,-0.53613 0.0714,-0.0536 0.16084,-0.10728 0.23233,-0.17872 0.28593,-0.23232 0.33954,-0.66122 0.10729,-0.94715 -0.19658,-0.2502 -0.554,-0.32168 -0.83994,-0.16084 l -0.21445,0.10728 c -0.25019,0.12515 -0.50038,0.23234 -0.76845,0.32168 -0.26806,0.0893 -0.55398,0.16085 -0.83992,0.21446 -0.14297,0.0179 -0.28594,0.0357 -0.44678,0.0536 -0.0714,0 -0.14296,0.0179 -0.23232,0.0179 h -0.4289 c -0.0894,0 -0.1787,0 -0.26806,-0.0179 h -0.10728 c -0.0357,0 -0.0894,0 -0.12515,-0.0179 -0.0894,-0.0179 -0.16083,-0.0179 -0.25019,-0.0357 -0.66121,-0.0893 -1.32245,-0.28594 -1.94792,-0.57186 -0.64336,-0.28594 -1.25096,-0.6791 -1.80496,-1.17949 -0.554,-0.50039 -1.03651,-1.09011 -1.4118,-1.76922 -0.37529,-0.67908 -0.64335,-1.42966 -0.76844,-2.21598 -0.0536,-0.39316 -0.0894,-0.80419 -0.0714,-1.19734 0,-0.10729 0.0179,-0.21446 0.0179,-0.32168 v -0.14296 c 0,-0.0536 0.0179,-0.10729 0.0179,-0.16085 0.0179,-0.21445 0.0536,-0.4289 0.0893,-0.64335 0.3038,-1.7156 1.16161,-3.39546 2.48406,-4.66429 0.33954,-0.32168 0.69696,-0.60762 1.07224,-0.87568 0.3753,-0.26806 0.78632,-0.50038 1.21522,-0.69696 0.42891,-0.19658 0.85781,-0.35742 1.32245,-0.48251 0.44677,-0.12514 0.91142,-0.19659 1.39393,-0.25019 0.23232,-0.0179 0.46464,-0.0357 0.71483,-0.0357 h 0.55401 l 0.19657,0.0179 c 0.51826,0.0357 1.01864,0.10715 1.51903,0.23232 1.00076,0.21445 1.98366,0.58974 2.89507,1.09013 1.82283,1.01862 3.3776,2.59126 4.32475,4.48558 0.48252,0.94716 0.82207,1.9658 0.9829,3.02018 0.0357,0.26807 0.0714,0.53612 0.0894,0.80418 l 0.0179,0.19659 0.0179,0.19658 v 0.76844 c 0,0.12515 -0.0179,0.33954 -0.0179,0.46464 -0.0179,0.28594 -0.0536,0.58975 -0.0894,0.87569 -0.0357,0.28591 -0.0894,0.57185 -0.14297,0.85779 -0.0536,0.28593 -0.12514,0.57187 -0.19659,0.83993 -0.14296,0.55399 -0.32166,1.10799 -0.53611,1.66199 -0.42891,1.07225 -1.00077,2.10877 -1.67987,3.05592 -1.37605,1.894306 -3.2525,3.431196 -5.397,4.414096 -1.07225,0.48251 -2.19811,0.83994 -3.35973,1.01864 -0.57187,0.10728 -1.1616,0.16084 -1.75134,0.17872 h -0.89354 c -0.32168,0 -0.62549,-0.0179 -0.94717,-0.0536 -1.25096,-0.0894 -2.48404,-0.32168 -3.69926,-0.66123 -1.19735,-0.33954 -2.35895,-0.82205 -3.46695,-1.39392 -2.19811,-1.17947 -4.18178,-2.787856 -5.71867,-4.735776 -0.76845,-0.96503 -1.44755,-2.01941 -2.00154,-3.10954 -0.554,-1.09011 -1.00077,-2.25173 -1.32244,-3.41333 -0.32169,-1.17947 -0.51826,-2.37683 -0.60762,-3.59204 l -0.0179,-0.23232 v -1.01864 -0.12515 -0.44678 c 0.0179,-0.58973 0.0714,-1.21521 0.14297,-1.82282 0.0714,-0.60761 0.17871,-1.23309 0.30381,-1.8407 0.12514,-0.60762 0.26807,-1.21522 0.44677,-1.82284 0.33954,-1.19734 0.76845,-2.35894 1.26884,-3.44906 1.01864,-2.18025 2.34107,-4.12819 3.93158,-5.68294 0.39317,-0.39317 0.80419,-0.75057 1.23309,-1.10799 0.42891,-0.33956 0.87568,-0.66122 1.34032,-0.96503 0.44677,-0.30381 0.92928,-0.57187 1.41179,-0.82207 0.23232,-0.12514 0.48251,-0.25019 0.73271,-0.35742 l 0.37529,-0.16083 0.37529,-0.16083 c 0.50038,-0.21445 1.01864,-0.39317 1.55476,-0.55401 0.12514,-0.0357 0.26806,-0.0714 0.39317,-0.12514 0.12514,-0.0357 0.26806,-0.0714 0.39315,-0.10728 0.26806,-0.0714 0.53613,-0.14297 0.80419,-0.19658 0.12515,-0.0357 0.26807,-0.0536 0.41103,-0.0894 0.14297,-0.0357 0.26806,-0.0536 0.41103,-0.0893 0.14297,-0.0179 0.26807,-0.0536 0.41103,-0.0714 l 0.19658,-0.0357 0.21445,-0.0357 c 0.14297,-0.0179 0.26806,-0.0357 0.41104,-0.0536 0.16083,-0.0179 0.30379,-0.0357 0.46464,-0.0536 0.12514,-0.0179 0.33953,-0.0357 0.46464,-0.0536 0.0894,-0.0179 0.19658,-0.0179 0.28593,-0.0357 l 0.19658,-0.0179 0.0894,-0.0179 h 0.10715 c 0.16085,-0.0179 0.30382,-0.0179 0.46465,-0.0357 l 0.23233,-0.0179 h 0.1787 c 0.12515,0 0.26807,-0.0179 0.39316,-0.0179 0.51826,-0.0179 1.05438,-0.0179 1.57264,0 1.03651,0.0357 2.05515,0.16085 3.03805,0.33956 1.98366,0.37528 3.84224,1.00076 5.53997,1.84068 1.69773,0.82207 3.19888,1.84071 4.52133,2.94871 0.0894,0.0714 0.16083,0.14296 0.25019,0.21445 0.0714,0.0714 0.16083,0.14296 0.23232,0.21445 0.16083,0.14295 0.30381,0.28593 0.46464,0.42889 0.16084,0.14298 0.30381,0.28594 0.44677,0.42891 0.14298,0.14296 0.28594,0.28593 0.42889,0.44677 0.55402,0.58975 1.07226,1.17947 1.5369,1.78709 0.9293,1.19734 1.67987,2.41256 2.26961,3.5563 l 0.10728,0.21445 0.10728,0.21445 c 0.0714,0.14296 0.14296,0.28593 0.19656,0.4289 0.0716,0.14297 0.12515,0.26806 0.19659,0.41103 0.0536,0.14296 0.12515,0.26806 0.17871,0.41103 0.21445,0.53613 0.42891,1.05438 0.58974,1.5369 0.26807,0.78632 0.46464,1.48328 0.62549,2.09088 0.0536,0.25019 0.28592,0.41104 0.53611,0.3753 0.26807,-0.0179 0.46465,-0.23232 0.46465,-0.50039 0.0179,-0.64335 0,-1.41179 -0.0893,-2.28747 z"
       fill="url(#a)"
       id="path7-6"
       style="fill:url(#linearGradient1786);fill-opacity:1;stroke-width:0.178703;stroke-miterlimit:4;stroke-dasharray:none"
       inkscape:export-filename="./prometheus-targets.png"
       inkscape:export-xdpi="98.96286"
       inkscape:export-ydpi="98.96286" />
    <g
       id="g1715"
       transform="matrix(0.79071778,0,0,0.79071778,181.29681,39.611724)"
       inkscape:export-filename="./prometheus-targets.png"
       inkscape:export-xdpi="98.96286"
       inkscape:export-ydpi="98.96286">
      <g
         id="Layer_2" />
      <path
         style="fill:#e6522c;fill-opacity:1"
         inkscape:connector-curvature="0"
         id="path4486"
         d="M 56.667,0.667 C 25.372,0.667 0,26.036 0,57.332 c 0,31.295 25.372,56.666 56.667,56.666 31.295,0 56.666,-25.371 56.666,-56.666 0,-31.296 -25.372,-56.665 -56.666,-56.665 z m 0,106.055 c -8.904,0 -16.123,-5.948 -16.123,-13.283 H 72.79 c 0,7.334 -7.219,13.283 -16.123,13.283 z M 83.297,89.04 H 30.034 V 79.382 H 83.298 V 89.04 Z M 83.106,74.411 H 30.186 C 30.01,74.208 29.83,74.008 29.66,73.802 24.208,67.182 22.924,63.726 21.677,60.204 c -0.021,-0.116 6.611,1.355 11.314,2.413 0,0 2.42,0.56 5.958,1.205 -3.397,-3.982 -5.414,-9.044 -5.414,-14.218 0,-11.359 8.712,-21.285 5.569,-29.308 3.059,0.249 6.331,6.456 6.552,16.161 3.252,-4.494 4.613,-12.701 4.613,-17.733 0,-5.21 3.433,-11.262 6.867,-11.469 -3.061,5.045 0.793,9.37 4.219,20.099 1.285,4.03 1.121,10.812 2.113,15.113 C 63.797,33.534 65.333,20.5 71,16 c -2.5,5.667 0.37,12.758 2.333,16.167 3.167,5.5 5.087,9.667 5.087,17.548 0,5.284 -1.951,10.259 -5.242,14.148 3.742,-0.702 6.326,-1.335 6.326,-1.335 l 12.152,-2.371 c 10e-4,-10e-4 -1.765,7.261 -8.55,14.254 z" />
    </g>
    <text
       xml:space="preserve"
       style="font-style:normal;font-weight:normal;font-size:15.8494px;line-height:1.25;font-family:sans-serif;letter-spacing:0px;word-spacing:0px;fill:#000000;fill-opacity:1;stroke:none;stroke-width:0.396238"
       x="240.65912"
       y="260.92514"
       id="text1896-5"
       inkscape:export-filename="./prometheus-targets.png"
       inkscape:export-xdpi="98.96286"
       inkscape:export-ydpi="98.96286"><tspan
         sodipodi:role="line"
         x="240.65912"
         y="260.92514"
         style="stroke-width:0.396238"
         id="tspan1898-9">Monitoring</tspan></text>
    <path
       style="fill:none;stroke:#000000;stroke-width:2.065;stroke-linecap:butt;stroke-linejoin:miter;stroke-miterlimit:4;stroke-dasharray:none;stroke-opacity:1;marker-end:url(#marker2613)"
       d="M 308.46624,82.528114 H 278.37981"
       id="path2261"
       inkscape:export-filename="./prometheus-targets.png"
       inkscape:export-xdpi="98.96286"
       inkscape:export-ydpi="98.96286" />
    <path
       style="fill:none;stroke:#000000;stroke-width:2.065;stroke-linecap:butt;stroke-linejoin:miter;stroke-miterlimit:4;stroke-dasharray:none;stroke-opacity:1;marker-end:url(#marker2623)"
       d="m 226.10402,134.77588 v 28.1223"
       id="path2263"
       sodipodi:nodetypes="cc"
       inkscape:export-filename="./prometheus-targets.png"
       inkscape:export-xdpi="98.96286"
       inkscape:export-ydpi="98.96286" />
    <path
       style="fill:none;stroke:#000000;stroke-width:2.065;stroke-linecap:butt;stroke-linejoin:miter;stroke-miterlimit:4;stroke-dasharray:none;stroke-opacity:1;marker-end:url(#marker2613-6)"
       d="M 175.85128,84.945551 105.62627,53.130771"
       id="path2261-1"
       sodipodi:nodetypes="cc"
       inkscape:export-filename="./prometheus-targets.png"
       inkscape:export-xdpi="98.96286"
       inkscape:export-ydpi="98.96286" />
    <path
       style="fill:none;stroke:#000000;stroke-width:2.065;stroke-linecap:butt;stroke-linejoin:miter;stroke-miterlimit:4;stroke-dasharray:none;stroke-opacity:1;marker-end:url(#marker2613-6-7)"
       d="M 176.27736,84.945551 87.843343,189.38525"
       id="path2261-1-5"
       sodipodi:nodetypes="cc"
       inkscape:export-filename="./prometheus-targets.png"
       inkscape:export-xdpi="98.96286"
       inkscape:export-ydpi="98.96286" />
    <path
       style="fill:none;stroke:#000000;stroke-width:2.065;stroke-linecap:butt;stroke-linejoin:miter;stroke-miterlimit:4;stroke-dasharray:none;stroke-opacity:1;marker-end:url(#marker2613-6-7-7)"
       d="M 176.27736,84.945551 96.587572,114.87973"
       id="path2261-1-5-1"
       sodipodi:nodetypes="cc"
       inkscape:export-filename="./prometheus-targets.png"
       inkscape:export-xdpi="98.96286"
       inkscape:export-ydpi="98.96286" />
    <g
       style="fill:#000000;fill-opacity:1;fill-rule:evenodd;stroke:#000000;stroke-linecap:round;stroke-linejoin:round"
       id="g3115"
       transform="matrix(0.73043713,0,0,0.73043713,201.99959,170.97307)"
       inkscape:export-filename="./prometheus-targets.png"
       inkscape:export-xdpi="98.96286"
       inkscape:export-ydpi="98.96286">
      <use
         xlink:href="#A-8"
         x="0.5"
         y="0.5"
         id="use3099"
         width="100%"
         height="100%"
         style="fill:#000000;fill-opacity:1" />
      <symbol
         id="A-8"
         overflow="visible"
         style="fill:#000000;fill-opacity:1">
        <path
           d="m 28.618,33.203 c 0,-2.031 1.682,-3.666 3.771,-3.666 2.089,0 3.771,1.635 3.771,3.666 0,2.031 -1.682,3.666 -3.771,3.666 -2.089,0 -3.771,-1.635 -3.771,-3.666 z m 2.33,6.482 c 0,-0.717 0.593,-1.294 1.331,-1.294 0.738,0 1.331,0.577 1.331,1.294 0,0.717 -0.593,1.293 -1.331,1.293 -0.738,0 -1.331,-0.577 -1.331,-1.293 z m -6.51,-6.392 c 0,-0.716 0.594,-1.294 1.331,-1.294 0.737,0 1.331,0.577 1.331,1.294 0,0.717 -0.593,1.294 -1.331,1.294 -0.738,0 -1.331,-0.577 -1.331,-1.294 z m 2.199,3.478 c -0.444,0.431 -0.444,1.294 0,1.941 0.222,0.215 0.665,0.431 0.887,0.431 0.222,0 0.666,-0.216 0.887,-0.431 0.221,-0.215 0.444,-0.647 0.444,-0.863 0,-0.431 -0.222,-0.647 -0.444,-0.862 -0.222,-0.647 -1.109,-0.647 -1.775,-0.216 z m 1.11,-6.718 c 0.444,0 0.665,-0.215 0.887,-0.431 0.222,-0.216 0.444,-0.647 0.444,-0.862 0,-0.432 -0.222,-0.647 -0.444,-0.863 -0.444,-0.431 -1.331,-0.431 -1.996,0 -0.444,0.431 -0.444,1.294 0,1.941 0.444,0 0.665,0.215 1.109,0.215 z M 7.826,68.909 c 0,-1.792 1.484,-3.234 3.327,-3.234 1.843,0 3.328,1.442 3.328,3.234 0,1.792 -1.485,3.235 -3.328,3.235 -1.843,0 -3.327,-1.443 -3.327,-3.235 z M 37.028,30.053 c 0.444,0 0.665,-0.215 0.887,-0.431 0.222,-0.216 0.444,-0.647 0.444,-0.862 0,-0.432 -0.222,-0.647 -0.444,-0.863 -0.444,-0.431 -1.331,-0.431 -1.997,0 -0.444,0.431 -0.444,1.294 0,1.941 0.444,0 0.665,0.215 1.109,0.215 z m -6.08,-3.342 c 0,-0.717 0.593,-1.294 1.331,-1.294 0.738,0 1.331,0.577 1.331,1.294 0,0.717 -0.593,1.294 -1.331,1.294 -0.738,0 -1.331,-0.577 -1.331,-1.294 z M 62.782,0 H 1.997 C 0.888,0 0,0.863 0,2.156 V 77.843 C 0,78.922 0.888,80 1.997,80 H 62.782 C 63.891,80 65,79.138 65,77.844 V 2.156 C 64.778,1.078 63.891,0 62.782,0 Z M 2.44,3.881 c 0,-1.078 0.887,-1.725 1.775,-1.725 0.888,0 1.775,0.863 1.775,1.725 0,1.078 -0.887,1.725 -1.775,1.725 C 3.327,5.606 2.44,4.745 2.44,3.881 Z m 15.086,68.356 v 0 0 c -1.331,2.372 -3.771,3.882 -6.433,3.882 A 7.33,7.33 0 0 1 3.772,68.788 c 0,-1.941 0.888,-3.881 2.218,-5.175 L 21.741,48.087 c 0.665,-0.647 1.553,-1.078 2.662,-1.078 1.997,0 3.771,1.725 3.771,3.666 0,0.647 -0.222,1.078 -0.444,1.725 v 0 z m 14.641,-13.8 c -1.553,0 -3.106,-0.216 -4.659,-0.431 l 2.44,-4.528 c 0,-0.215 0,-0.215 0.222,-0.431 0.444,-0.862 0.444,-1.509 0.444,-2.372 0,-3.235 -2.662,-6.037 -5.99,-6.037 -1.553,0 -3.106,0.647 -4.437,1.725 l -5.324,5.175 C 9.761,47.01 6.433,40.325 6.433,32.994 6.433,18.978 17.969,7.765 32.167,7.765 c 14.198,0 25.734,11.213 25.734,25.229 0,14.232 -11.536,25.445 -25.734,25.445 z m 27.952,18.976 c -1.109,0 -1.775,-0.863 -1.775,-1.725 0,-1.078 0.887,-1.725 1.775,-1.725 1.109,0 1.775,0.863 1.775,1.725 0,0.862 -0.666,1.725 -1.775,1.725 z m 0,-71.806 c -1.109,0 -1.775,-0.862 -1.775,-1.725 0,-1.078 0.887,-1.725 1.775,-1.725 1.109,0 1.775,0.863 1.775,1.725 0,0.862 -0.666,1.725 -1.775,1.725 z m -24.2,31.164 c -0.444,0.431 -0.444,1.294 0,1.941 0.222,0.215 0.665,0.431 0.887,0.431 0.222,0 0.665,-0.216 0.887,-0.431 0.222,-0.215 0.444,-0.647 0.444,-0.863 0,-0.431 -0.222,-0.647 -0.444,-0.862 -0.222,-0.647 -1.109,-0.647 -1.775,-0.216 z m -3.67,-15.355 c -6.655,0 -11.979,5.391 -11.979,11.86 0,6.469 5.324,11.86 11.979,11.86 6.655,0 12.201,-5.391 12.201,-11.86 -0.222,-6.684 -5.546,-11.86 -12.201,-11.86 z m 0,21.348 c -5.324,0 -9.761,-4.313 -9.761,-9.488 0,-5.175 4.215,-9.488 9.761,-9.488 5.324,0 9.761,4.313 9.761,9.488 0,5.175 -4.437,9.488 -9.761,9.488 z m 5.205,-9.461 c 0,-0.716 0.594,-1.293 1.331,-1.293 0.737,0 1.331,0.577 1.331,1.293 0,0.716 -0.593,1.294 -1.331,1.294 -0.738,0 -1.331,-0.577 -1.331,-1.294 z"
           fill="#0078d7"
           stroke="none"
           id="path3101"
           style="fill:#000000;fill-opacity:1" />
      </symbol>
    </g>
    <path
       id="path3665"
       style="fill:#e6522c;fill-opacity:1;stroke-width:1.59879;stroke-miterlimit:4;stroke-dasharray:none"
       d="m 347.47776,155.59416 c -3.01073,0.21381 -5.39197,3.28683 -4.83063,6.25545 0.35897,0.75038 -0.52238,0.59038 -1.04347,0.77145 -3.89951,0.77202 -7.65002,3.0586 -9.45907,6.69659 -2.32802,4.54576 -2.30583,9.80636 -2.37162,14.79015 -0.0788,4.09904 0.13523,8.36095 -1.35871,12.25526 -1.38548,3.21942 -4.44908,5.18977 -6.83173,7.60598 -1.81091,1.68886 -3.47948,3.52906 -5.19143,5.30636 -1.63147,1.94874 -1.19816,5.08385 0.76795,6.64126 2.70372,2.23599 6.28394,2.91764 9.63966,3.55639 4.69592,0.78479 9.4584,1.06512 14.21159,1.22057 0.1823,3.54316 3.41377,6.55731 6.96148,6.49848 3.49804,0.0885 6.7158,-2.8055 7.01397,-6.28848 0.13535,-0.46928 1.0383,-0.1354 1.50902,-0.26111 6.03032,-0.30196 12.1583,-0.62887 17.95742,-2.44113 2.42404,-0.81985 5.19725,-2.10369 6.00009,-4.75563 0.59553,-1.95128 -0.33852,-4.0474 -1.90562,-5.25469 -2.70062,-3.10816 -5.87782,-5.73935 -8.79475,-8.63016 -2.16943,-2.11231 -3.02262,-5.14928 -3.25765,-8.08687 -0.67485,-6.71953 0.4703,-13.70044 -1.77264,-20.20518 -1.18702,-3.55967 -3.99331,-6.51992 -7.52893,-7.80674 -1.26977,-0.50416 -2.60226,-0.84492 -3.9491,-1.06636 0.87891,-2.94218 -1.26224,-6.30087 -4.30199,-6.74104 -0.48245,-0.0898 -0.97557,-0.10411 -1.46384,-0.0606 z m 0.70642,4.48189 c 1.09148,0.16027 0.92061,1.9315 -0.18138,1.8758 -1.1029,0.0575 -1.2721,-1.71636 -0.18138,-1.8758 0.12158,-0.0245 0.24119,-0.0186 0.36276,0 z m -0.18138,6.37199 c 3.5729,0.0513 7.55288,0.33288 10.33379,2.84881 2.31568,2.17094 2.89947,5.49177 3.18206,8.45982 0.5702,6.31607 -0.37414,12.82237 1.44273,18.98782 1.04511,3.69821 3.91299,6.42941 6.68516,8.91229 2.24186,2.07209 4.46154,4.23074 6.47183,6.50026 -0.94734,1.26561 -2.64199,1.62848 -4.06773,2.10543 -5.60246,1.45467 -11.39699,1.71859 -17.15687,1.94979 -8.47591,0.19714 -16.96923,0.19368 -25.37377,-0.86557 -2.96298,-0.46652 -6.15394,-0.87222 -8.82773,-2.41236 -0.318,-0.24054 -1.16183,-0.71502 -0.57355,-1.11141 2.5979,-2.74045 5.32674,-5.3593 8.11149,-7.91002 2.4372,-2.21547 4.42623,-5.028 5.12892,-8.28966 1.63113,-6.901 0.22103,-14.12234 1.58723,-21.00579 0.46056,-2.338 1.69665,-4.94423 3.92119,-6.24417 2.71645,-1.65773 6.03233,-1.88614 9.13525,-1.92524 z m -0.007,54.35774 c 0.82255,-0.007 1.64511,-0.0161 2.46766,-0.0238 -0.37659,1.9089 -3.10462,2.60385 -4.338,1.08912 -0.27574,-0.3132 -1.00342,-1.32969 -0.0967,-1.08437 0.65566,0.006 1.31133,0.0127 1.96699,0.0191 z"
       inkscape:export-filename="./prometheus-targets.png"
       inkscape:export-xdpi="98.96286"
       inkscape:export-ydpi="98.96286" />
    <path
       style="fill:none;stroke:#000000;stroke-width:2.065;stroke-linecap:butt;stroke-linejoin:miter;stroke-miterlimit:4;stroke-dasharray:none;stroke-opacity:1;marker-end:url(#marker2623-4)"
       d="m 263.86201,120.06301 59.45471,58.0376"
       id="path2263-3"
       sodipodi:nodetypes="cc"
       inkscape:export-filename="./prometheus-targets.png"
       inkscape:export-xdpi="98.96286"
       inkscape:export-ydpi="98.96286" />
  </g>
</svg>
